<svg xmlns="http://www.w3.org/2000/svg" viewBox="0 0 800 800" fill="none" stroke="#f97316" stroke-opacity="0.15" stroke-width="1.2" stroke-linecap="round" stroke-linejoin="round">
  <!-- Bowl 1 (center) -->
  <path d="M280 380 Q400 500 520 380" />
  <path d="M280 380 Q280 440 400 470 Q520 440 520 380" />
  <ellipse cx="400" cy="380" rx="120" ry="25" />
  <!-- Steam from bowl -->
  <path d="M370 355 Q360 330 370 310 Q380 290 370 270" />
  <path d="M400 350 Q390 320 400 300 Q410 280 400 255" />
  <path d="M430 355 Q420 330 430 310 Q440 290 430 270" />

  <!-- Plate (bottom-left) -->
  <ellipse cx="200" cy="580" rx="100" ry="30" />
  <ellipse cx="200" cy="575" rx="70" ry="20" />
  
  <!-- Burger on plate -->
  <path d="M155 555 Q200 530 245 555" />
  <path d="M155 555 L155 565 Q200 545 245 565 L245 555" />
  <path d="M152 565 Q200 580 248 565" />
  <path d="M150 565 L150 572 Q200 590 250 572 L250 565" />

  <!-- Fork (top-left) -->
  <path d="M120 120 L120 280" />
  <path d="M120 120 L120 180" />
  <path d="M110 120 L110 170 Q110 185 120 185" />
  <path d="M130 120 L130 170 Q130 185 120 185" />
  
  <!-- Knife (next to fork) -->
  <path d="M160 120 L160 290" />
  <path d="M160 120 Q175 150 160 200" />
  
  <!-- Spoon (top-right) -->
  <path d="M620 130 L620 300" />
  <ellipse cx="620" cy="130" rx="15" ry="25" />

  <!-- Pizza Slice (right side) -->
  <path d="M650 450 L700 580 L600 580 Z" />
  <circle cx="640" cy="520" r="6" />
  <circle cx="665" cy="540" r="5" />
  <circle cx="650" cy="555" r="4" />
  
  <!-- Coffee Cup (top-center-right) -->
  <path d="M530 160 L530 230 Q530 260 560 260 Q590 260 590 230 L590 160" />
  <path d="M530 160 L590 160" />
  <path d="M590 185 Q620 185 620 210 Q620 235 590 235" />
  <!-- Steam from cup -->
  <path d="M550 140 Q545 120 550 105" />
  <path d="M570 140 Q565 115 570 100" />
  
  <!-- Donut (bottom-right area) -->
  <circle cx="620" cy="680" r="40" />
  <circle cx="620" cy="680" r="16" />
  <path d="M590 665 Q620 650 650 665" />
  
  <!-- Chopsticks (left area) -->
  <path d="M80 400 L180 600" />
  <path d="M100 400 L200 600" />

  <!-- Rice Bowl (bottom center) -->
  <path d="M350 650 Q400 700 450 650" />
  <ellipse cx="400" cy="650" rx="50" ry="12" />
  <path d="M360 645 Q380 635 400 645 Q420 635 440 645" />

  <!-- Noodles decoration -->
  <path d="M320 200 Q340 220 320 240 Q300 260 320 280" />
  <path d="M340 195 Q360 215 340 235 Q320 255 340 275" />
  
  <!-- Small plate top -->
  <ellipse cx="450" cy="130" rx="45" ry="12" />
  <ellipse cx="450" cy="127" rx="30" ry="8" />
  
  <!-- Drink glass bottom-left -->
  <path d="M100 680 L115 750 L155 750 L170 680" />
  <path d="M100 680 L170 680" />
  <path d="M108 700 L162 700" />
  <!-- Straw -->
  <path d="M145 680 L160 630" />
  
  <!-- Scattered small circles (bubbles / decoration) -->
  <circle cx="300" cy="150" r="3" />
  <circle cx="500" cy="350" r="4" />
  <circle cx="700" cy="350" r="3" />
  <circle cx="250" cy="480" r="3" />
  <circle cx="550" cy="600" r="4" />
  <circle cx="150" cy="350" r="3" />
  <circle cx="480" cy="480" r="2" />
  <circle cx="350" cy="550" r="3" />
  <circle cx="700" cy="200" r="2" />
  <circle cx="250" cy="700" r="3" />
</svg>
